<?xml version="1.0" encoding="UTF-8"?>
<svg id="Layer_2" data-name="Layer 2" xmlns="http://www.w3.org/2000/svg" viewBox="0 0 100 100">
  <defs>
    <style>
      .cls-1 {
        fill: #ef76a3;
      }
    </style>
  </defs>
  <g id="Layer_1-2" data-name="Layer 1">
    <g>
      <path class="cls-1" d="M53.17,38.82c-1.12-.31-2.27-.43-3.45-.38-1.18.06-2.19.31-3.03.76-1.06.5-1.78,1.37-2.14,2.61-.36,1.23-.36,2.45,0,3.66.36,1.21,1.08,2.06,2.14,2.56,1.18.5,2.58.74,4.2.71,1.62-.03,3.07-.46,4.33-1.3,1.26-.84,1.89-2.13,1.89-3.87,0-1.29-.38-2.32-1.13-3.11-.76-.78-1.7-1.33-2.82-1.64Z"/>
      <path class="cls-1" d="M50,0C22.39,0,0,22.39,0,50s22.39,50,50,50,50-22.39,50-50S77.61,0,50,0ZM72.8,56.93c1.6,1.85,2.4,4.09,2.4,6.72,0,1.79-.36,3.61-1.09,5.46-.73,1.85-1.95,3.56-3.66,5.13-1.71,1.57-4.03,2.82-6.98,3.74-2.94.92-6.6,1.39-10.97,1.39-6-.06-11.07-1.04-15.21-2.94-4.15-1.9-7.28-4.97-9.41-9.2-2.13-4.23-3.19-9.85-3.19-16.85,0-6.11.99-11.37,2.98-15.8,1.99-4.43,4.89-7.86,8.7-10.3,3.81-2.44,8.49-3.66,14.04-3.66,1.44,0,2.81.07,4.14.19v7.47c0,2.56,2.08,4.64,4.64,4.64,2.13,0,3.92-1.44,4.47-3.39.49.69,1.29,1.15,2.2,1.15,1.49,0,2.69-1.21,2.69-2.69v-2.34c1.23.92,2.31,1.94,3.24,3.09,2.1,2.61,3.26,5.7,3.49,9.29.22,3.42-.35,6.39-1.72,8.91-1.37,2.52-3.4,4.76-6.09,6.72,1.96.34,3.74,1.43,5.34,3.28Z"/>
      <path class="cls-1" d="M53.17,59.62c-1.12-.28-2.27-.38-3.45-.29-1.18.08-2.19.29-3.03.63-1.06.45-1.78,1.21-2.14,2.27-.36,1.07-.36,2.13,0,3.19.36,1.07,1.08,1.82,2.14,2.27,1.18.45,2.58.66,4.2.63,1.62-.03,3.07-.41,4.33-1.13,1.26-.73,1.89-1.85,1.89-3.36,0-1.12-.38-2.03-1.13-2.73-.76-.7-1.7-1.19-2.82-1.47Z"/>
    </g>
  </g>
</svg>